<?xml version="1.0" encoding="UTF-8" standalone="no"?>
<!-- Created with Inkscape (http://www.inkscape.org/) -->

<svg
   version="1.1"
   id="svg1"
   width="2560"
   height="2560"
   viewBox="0 0 2560 2560"
   sodipodi:docname="icon.svg"
   inkscape:version="1.4.2 (f4327f4, 2025-05-13)"
   inkscape:export-filename="icons\icon432.png"
   inkscape:export-xdpi="16.200001"
   inkscape:export-ydpi="16.200001"
   xmlns:inkscape="http://www.inkscape.org/namespaces/inkscape"
   xmlns:sodipodi="http://sodipodi.sourceforge.net/DTD/sodipodi-0.dtd"
   xmlns="http://www.w3.org/2000/svg"
   xmlns:svg="http://www.w3.org/2000/svg">
  <defs
     id="defs1" />
  <sodipodi:namedview
     id="namedview1"
     pagecolor="#505050"
     bordercolor="#eeeeee"
     borderopacity="1"
     inkscape:showpageshadow="0"
     inkscape:pageopacity="0"
     inkscape:pagecheckerboard="0"
     inkscape:deskcolor="#505050"
     inkscape:zoom="0.33398438"
     inkscape:cx="1278.5029"
     inkscape:cy="1280"
     inkscape:window-width="1920"
     inkscape:window-height="1057"
     inkscape:window-x="1072"
     inkscape:window-y="607"
     inkscape:window-maximized="1"
     inkscape:current-layer="g1" />
  <g
     inkscape:groupmode="layer"
     inkscape:label="Image"
     id="g1">
    <g
       id="g2">
      <path
         style="fill:#bbbbbb"
         d="m 726.94851,2134.6716 c -56.67831,-6.4307 -104.67991,-12.0179 -106.67022,-12.4159 -1.99031,-0.3981 -28.34057,-14.1185 -58.55613,-30.4897 L 506.78478,2062 489.83109,2046.7156 c -17.32849,-15.6223 -89.01069,-92.5349 -91.15077,-97.8018 -0.65118,-1.6026 -25.59696,-78.8138 -55.43507,-171.5805 -29.83812,-92.7666 -55.12081,-170.3758 -56.18377,-172.4648 -2.01899,-3.9679 -21.00506,-61.9593 -78.30972,-239.1908 l -34.16188,-105.6556 -17.84889,-74.3444 c -9.81689,-40.8894 -25.36197,-107.9444 -34.5446,-149.011 L 105.50068,962 96.754787,881.39555 c -4.810241,-44.33244 -8.297894,-81.03302 -7.75034,-81.55684 0.547554,-0.52382 33.937813,-8.19407 74.200563,-17.04501 40.26276,-8.85094 73.52956,-16.41716 73.92623,-16.81383 0.39667,-0.39667 -2.80209,-16.66851 -7.10835,-36.15964 -5.79996,-26.25201 -7.47137,-36.00628 -6.44778,-37.62901 0.92808,-1.47131 7.8852,-3.63413 21.18832,-6.587 10.8936,-2.41803 19.97803,-4.5679 20.18762,-4.77749 0.20959,-0.20959 -2.03686,-11.39171 -4.99211,-24.84916 -4.35588,-19.83554 -5.04998,-24.7814 -3.66606,-26.12294 1.30288,-1.26299 300.3689,-67.68412 527.70712,-117.20122 16.19051,-3.52649 21.0222,-4.15207 22.30817,-2.88831 0.90282,0.88722 3.96771,11.96792 6.81086,24.62377 2.84315,12.65585 5.56244,23.40371 6.04287,23.88414 0.48042,0.48042 9.92968,-1.09889 20.99835,-3.50959 16.89549,-3.67975 20.40044,-4.09267 21.84234,-2.57325 0.94462,0.9954 5.11212,17.40983 9.26111,36.4765 4.14899,19.06666 7.96197,35.07243 8.47329,35.56836 0.51132,0.49594 33.32968,-6.25049 72.92968,-14.99206 39.6,-8.74156 73.24863,-15.89733 74.77463,-15.9017 2.23,-0.006 17.6429,23.47965 78.5271,119.65873 41.6638,65.81667 77.0976,121.16667 78.7418,123 1.6442,1.83333 23.4953,35.73333 48.558,75.33333 25.0628,39.6 46.0921,72 46.7318,72 0.6396,0 21.6722,-32.4 46.7389,-72 25.0667,-39.6 46.9179,-73.5 48.5582,-75.33333 1.6403,-1.83333 37.0608,-57.18333 78.7122,-123 61.2948,-96.85678 76.263,-119.66292 78.5269,-119.64703 1.5384,0.0108 35.1971,7.16314 74.7971,15.89409 39.6,8.73096 72.4184,15.47212 72.9297,14.98037 0.5113,-0.49175 4.3243,-16.4941 8.4733,-35.56076 4.149,-19.06667 8.3165,-35.4811 9.2611,-36.4765 1.4419,-1.51942 4.9469,-1.1065 21.8424,2.57325 11.0686,2.4107 20.5179,3.99001 20.9983,3.50959 0.4804,-0.48043 3.1997,-11.22829 6.0429,-23.88414 2.8431,-12.65585 5.908,-23.73655 6.8108,-24.62377 1.286,-1.26379 6.2617,-0.60745 22.9749,3.03061 219.1113,47.69527 525.7381,115.80019 527.0404,117.06102 1.3838,1.33971 0.6894,6.28725 -3.666,26.12084 -2.9553,13.45745 -5.2017,24.63957 -4.9921,24.84916 0.2095,0.20959 9.294,2.35946 20.1876,4.77749 13.3031,2.95287 20.2602,5.11569 21.1883,6.587 1.0236,1.62273 -0.6478,11.377 -6.4478,37.62901 -4.3063,19.49113 -7.505,35.76297 -7.1083,36.15964 0.3966,0.39667 33.6634,7.96289 73.9262,16.81383 40.2627,8.85094 73.6614,16.52958 74.2192,17.06365 0.5578,0.53407 -2.9321,37.23465 -7.7553,81.55685 l -8.7695,80.5858 -16.6853,74.6667 c -9.1769,41.0666 -24.7245,108.1431 -34.5503,149.0587 l -17.8651,74.392 -34.8186,107.608 c -58.0307,179.3451 -75.734,233.4096 -77.6909,237.2616 -1.5353,3.0222 -95.9721,294.4354 -108.2725,334.1075 l -3.6466,11.7612 -36.894,40.2388 c -20.2917,22.1314 -44.532,47.1388 -53.8674,55.5722 l -16.9734,15.3333 -44.946,24.4197 c -24.7203,13.4308 -50.046,27.0575 -56.2793,30.2815 l -11.3333,5.8619 -108,12.0551 -108,12.0551 -447.3334,-0.1547 L 830,2146.3638 Z"
         id="path7" />
      <path
         style="fill:#d6c88d"
         d="m 726,2133.2108 c -57.2,-6.4937 -105.2,-12.1092 -106.66667,-12.4791 -1.46666,-0.3698 -26.96666,-13.8131 -56.66666,-29.8738 l -54,-29.2014 -17.06965,-15.1616 c -19.05928,-16.9288 -90.93035,-94.5512 -90.93035,-98.2069 0,-2.1595 49.39206,-2.288 879.33333,-2.288 832.7978,0 879.3333,0.1221 879.3333,2.3073 0,3.7583 -70.0173,79.3951 -90.1914,97.4301 l -18.1915,16.2626 -55.1419,29.5815 -55.1418,29.5814 -108.1413,12.0852 -108.1412,12.0852 -447.1921,-0.158 L 830,2145.0174 Z m 283.8135,-41.5126 c -0.3506,-0.5673 -27.90214,-1.0315 -61.22552,-1.0315 -33.32339,0 -60.58798,0.4642 -60.58798,1.0315 0,0.5674 27.55149,1.0316 61.22553,1.0316 33.67404,0 60.93867,-0.4642 60.58797,-1.0316 z m 220.8532,-0.01 c 0,-0.5617 -27.3,-1.0212 -60.6667,-1.0212 -33.3667,0 -60.6667,0.4595 -60.6667,1.0212 0,0.5617 27.3,1.0213 60.6667,1.0213 33.3667,0 60.6667,-0.4596 60.6667,-1.0213 z m 220,0 c 0,-0.5617 -27.3,-1.0212 -60.6667,-1.0212 -33.3667,0 -60.6667,0.4595 -60.6667,1.0212 0,0.5617 27.3,1.0213 60.6667,1.0213 33.3667,0 60.6667,-0.4596 60.6667,-1.0213 z m 221.3333,0.01 c 0,-0.5673 -27.2646,-1.0315 -60.588,-1.0315 -33.3234,0 -60.8749,0.4642 -61.2255,1.0315 -0.3507,0.5674 26.9139,1.0316 60.588,1.0316 33.674,0 61.2255,-0.4642 61.2255,-1.0316 z m -881.66453,-4.0315 c -0.39743,-1.1969 -10.29388,-2.2953 -35.11111,-3.8967 -33.06288,-2.1335 -50.75334,-2.7781 -47.89103,-1.7448 0.73334,0.2647 13.63334,1.4745 28.66667,2.6886 15.03333,1.214 31.23333,2.6679 36,3.231 14.14137,1.6703 18.95821,1.5973 18.33547,-0.2781 z m 1010.99783,-0.9752 c 52.7517,-4.9152 53.3477,-4.9819 45.3334,-5.0705 -4.0334,-0.044 -22.8843,0.9225 -41.8911,2.149 -24.8172,1.6014 -34.7136,2.6998 -35.1111,3.8967 -0.705,2.1232 -2.0196,2.1637 31.6688,-0.9752 z m -1100.97459,-6.2327 c -0.90271,-0.3653 -2.70271,-0.3875 -4,-0.05 -1.29729,0.3381 -0.55871,0.6369 1.64129,0.6641 2.2,0.027 3.26142,-0.2494 2.35871,-0.6146 z m 1163.97459,-0.01 c -0.9166,-0.3699 -2.4166,-0.3699 -3.3333,0 -0.9167,0.3699 -0.1667,0.6725 1.6667,0.6725 1.8333,0 2.5833,-0.3026 1.6666,-0.6725 z M 905.12303,1664.6667 c -64.76729,-62.7 -118.10317,-114 -118.52419,-114 -0.42103,0 -43.59416,49.2 -95.9403,109.3333 -52.34614,60.1333 -96.04168,109.3333 -97.10122,109.3333 -3.42587,0 -304.40158,-164.3621 -306.23572,-167.2346 -1.72248,-2.6976 -24.03943,-70.7492 -82.67365,-252.0987 -27.57548,-85.2881 -29.57639,-92.2012 -44.18701,-152.6667 -18.14912,-75.1093 -53.79427,-231.21898 -53.79427,-235.59457 0,-2.16559 0.77357,-3.07206 2.62165,-3.07206 1.44191,0 73.1821,9 159.42266,20 86.24055,11 158.80283,20 161.2495,20 3.57779,0 22.80258,-11.66744 98.22084,-59.6098 91.25096,-58.00698 93.93828,-59.60257 99.94372,-59.34127 3.39425,0.14768 52.00468,4.51349 108.02317,9.70179 56.01848,5.1883 105.15179,9.48436 109.18512,9.5468 4.47442,0.0693 71.72993,-12.22242 172.51537,-31.52906 137.0416,-26.25196 165.4772,-31.34097 166.9151,-29.87219 1.4787,1.51037 39.1392,60.48902 82.2258,128.77039 6.5941,10.45 12.436,19 12.9819,19 0.5459,0 21.5367,-32.40893 46.6462,-72.01986 25.1095,-39.61092 46.6616,-73.26453 47.8934,-74.78579 l 2.2397,-2.76592 167.9579,31.98904 167.958,31.98904 112,-10.4111 c 108.6119,-10.09616 112.121,-10.34043 116,-8.07457 2.2,1.2851 44.7102,28.22863 94.4671,59.87452 71.31,45.35385 91.3813,57.53798 94.7842,57.53798 2.3744,0 74.8916,-9 161.1494,-20 86.2578,-11 158.055,-20 159.5492,-20 1.9305,0 2.7148,0.86821 2.7099,3 -0,1.65 -5.7186,28.2 -12.6996,59.00003 -6.9811,30.8 -14.5077,64.1 -16.7258,74 -3.8444,17.158 -14.5252,61.9803 -31.7723,133.3333 -6.1141,25.2945 -16.2177,58.3941 -44.7701,146.6667 -71.6902,221.6376 -73.6993,227.5924 -77.7379,230.408 -6.7765,4.7244 -301.2275,164.2586 -303.1707,164.2586 -1.0636,0 -44.7625,-49.2 -97.1086,-109.3333 -52.3462,-60.1333 -95.5193,-109.3333 -95.9403,-109.3333 -0.4211,0 -53.7569,51.3 -118.5242,114 -64.7673,62.7 -118.3429,114 -119.0569,114 -0.7141,0 -58.5657,-57.45 -128.5592,-127.6667 L 1280,1523.3333 1152.7391,1651 c -69.9935,70.2167 -127.8451,127.6667 -128.5592,127.6667 -0.714,0 -54.28959,-51.3 -119.05687,-114 z M 238.85373,762.33333 c -3.0069,-9.62983 -15.27886,-69.01931 -14.436,-69.86218 0.4982,-0.49819 9.75251,-2.9325 20.56513,-5.40957 10.81262,-2.47706 20.13063,-4.97507 20.70669,-5.55113 0.57606,-0.57606 -1.32348,-11.80157 -4.22119,-24.94558 -4.04639,-18.35439 -4.90512,-24.27194 -3.7018,-25.50932 1.79295,-1.84369 -2.44405,-0.89289 301.56677,-67.67291 125.4,-27.54578 231.68476,-50.90133 236.18835,-51.90123 4.50359,-0.9999 8.86349,-1.40074 9.68866,-0.89076 0.82518,0.50999 3.83281,11.57811 6.68362,24.59582 2.85081,13.01771 5.57289,24.05816 6.04907,24.53434 0.47618,0.47617 9.0838,-0.85767 19.12804,-2.9641 10.04424,-2.10643 19.52745,-4.09214 21.07379,-4.4127 1.75609,-0.36403 3.12134,0.22453 3.63682,1.56786 1.13952,2.96952 15.55165,68.4739 15.55165,70.68356 0,0.98226 -0.98916,2.16551 -2.19815,2.62944 -2.36975,0.90936 -11.42885,2.91029 -384.14034,84.84711 -136.58617,30.02708 -248.88964,54.59469 -249.56326,54.59469 -0.67363,0 -1.83366,-1.95 -2.57785,-4.33334 z m 1998.47957,-13.1372 c -42.9,-9.48833 -183,-40.34484 -311.3333,-68.57001 -128.3333,-28.22518 -235.5833,-51.94092 -238.3333,-52.70165 -2.75,-0.76073 -5,-2.20726 -5,-3.21452 0,-2.29367 14.2581,-67.42727 15.427,-70.47344 1.0941,-2.85105 0.1412,-2.93016 21.2396,1.76349 21.7319,4.83457 23.0812,4.89088 23.9608,1 0.373,-1.65 2.7882,-12.56693 5.3672,-24.25985 2.5789,-11.69292 5.3503,-21.66865 6.1588,-22.1683 0.8084,-0.49964 5.1546,-0.0903 9.6582,0.90956 4.5036,0.9999 110.7884,24.35083 236.1884,51.89096 301.815,66.28408 299.7561,65.82206 301.6028,67.68091 1.249,1.2572 0.4285,6.88606 -3.7166,25.49678 -2.9257,13.13587 -4.847,24.34139 -4.2695,24.90116 0.5775,0.55978 9.9094,3.07171 20.7376,5.58208 10.8283,2.51037 20.0881,4.96466 20.5774,5.45399 0.8314,0.83135 -11.4778,60.32041 -14.4521,69.84604 -0.8471,2.71284 -2.187,4.29239 -3.583,4.22383 -1.2265,-0.0602 -37.33,-7.87269 -80.23,-17.36103 z"
         id="path6" />
      <path
         style="fill:#b2a364"
         d="m 726,2133.2108 c -57.2,-6.4937 -105.2,-12.1092 -106.66667,-12.4791 -1.46666,-0.3698 -26.96666,-13.8131 -56.66666,-29.8738 l -54,-29.2014 -17.06965,-15.1616 c -19.05928,-16.9288 -90.93035,-94.5512 -90.93035,-98.2069 0,-2.1595 49.39206,-2.288 879.33333,-2.288 832.7978,0 879.3333,0.1221 879.3333,2.3073 0,3.7583 -70.0173,79.3951 -90.1914,97.4301 l -18.1915,16.2626 -55.1419,29.5815 -55.1418,29.5814 -108.1413,12.0852 -108.1412,12.0852 -447.1921,-0.158 L 830,2145.0174 Z m 283.6667,-40.6024 c 0.2075,-0.7938 -22.69142,-1.406 -60.6667,-1.6219 -53.75442,-0.3055 -62.83846,0.064 -60.44447,2.4579 1.21981,1.2199 120.78957,0.3945 121.11117,-0.836 z m 221,-0.2751 c 0,-1.3089 -13.0223,-1.6666 -60.6667,-1.6666 -47.6445,0 -60.6667,0.3577 -60.6666,1.6666 0,1.3089 13.0222,1.6667 60.6666,1.6667 47.6445,0 60.6667,-0.3578 60.6667,-1.6667 z m 219.9999,0 c 10e-5,-1.3089 -13.0221,-1.6666 -60.6666,-1.6666 -47.6444,0 -60.6667,0.3577 -60.6667,1.6666 0,1.3089 13.0222,1.6667 60.6667,1.6667 47.6444,0 60.6666,-0.3578 60.6666,-1.6667 z m 221.0195,-0.058 c 0.4133,-1.2399 -13.37,-1.6083 -60.163,-1.6083 -53.0837,0 -63.917,0.4949 -61.598,2.814 0.2856,0.2856 27.6781,0.4931 60.8721,0.461 45.8867,-0.044 60.4813,-0.4438 60.8889,-1.6667 z M 790,2088 c 0,-1.6722 -5.79057,-2.3598 -35.33333,-4.1954 -69.76126,-4.3347 -78.23857,-4.0938 -27.33334,0.7766 25.66667,2.4557 48.16667,4.7614 50,5.1238 C 783.69774,2090.963 790,2090.1147 790,2088 Z m 1043.3333,-3.4556 c 48.019,-4.6637 43.3572,-4.8702 -23.3333,-1.0335 -21.2667,1.2234 -39.1844,2.6817 -39.8172,3.2406 -0.6327,0.5589 -0.7049,1.7371 -0.1603,2.6183 0.7078,1.1452 3.3174,1.3227 9.1505,0.6221 4.4882,-0.539 28.8603,-2.9904 54.1603,-5.4475 z M 905.12303,1664.6667 c -64.76729,-62.7 -118.10317,-114 -118.52419,-114 -0.42103,0 -43.59416,49.2 -95.9403,109.3333 -52.34614,60.1333 -96.10864,109.3183 -97.25,109.2998 -1.14136,-0.018 -70.17521,-37.0684 -153.40854,-82.3333 l -151.33333,-82.2998 -11.1026,-33.3334 C 271.45765,1553 246.16925,1475.3 221.36763,1398.6667 l -45.09384,-139.3334 -17.4394,-72.6666 c -26.64896,-111.0412 -52.35695,-225.67747 -50.92981,-227.10461 0.76426,-0.76426 62.01134,6.5034 159.66764,18.94637 87.13528,11.10243 160.3198,20.17993 162.63227,20.17222 3.24349,-0.0108 25.63758,-13.63874 97.97683,-59.62381 91.25096,-58.00698 93.93828,-59.60257 99.94372,-59.34127 3.39425,0.14768 52.00468,4.52127 108.02317,9.71909 56.01848,5.19781 105.45179,9.45248 109.85179,9.45482 4.93296,0.003 70.85684,-12.05101 171.9545,-31.44048 145.0824,-27.82526 164.1827,-31.21658 165.9367,-29.46256 1.0902,1.0902 22.808,34.83923 48.2617,74.99785 25.4538,40.15863 46.9812,73.01568 47.8387,73.01568 0.8575,0 22.2628,-32.7 47.5673,-72.66667 25.3045,-39.96666 47.0199,-73.7143 48.2564,-74.99474 2.1349,-2.21067 10.6584,-0.7221 168.9996,29.51461 l 166.7513,31.84269 106.5502,-9.75213 c 58.6027,-5.36367 109.3367,-10.05945 112.7423,-10.43506 l 6.1921,-0.68293 94.2746,59.92045 c 72.8355,46.29385 95.2297,59.92182 98.4746,59.92649 2.31,0.003 75.4878,-9.07891 162.6173,-20.18273 99.3693,-12.66369 158.8865,-19.71953 159.6762,-18.92986 1.4455,1.44557 -23.985,114.84898 -50.9263,227.09788 l -17.439,72.6579 -37.9459,117.3421 c -69.5784,215.1606 -73.5,226.8536 -76.7956,228.9787 -8.5631,5.5217 -300.8947,163.6966 -302.5366,163.6966 -1.0636,0 -44.7625,-49.2 -97.1086,-109.3333 -52.3462,-60.1333 -95.5193,-109.3333 -95.9403,-109.3333 -0.4211,0 -53.7569,51.3 -118.5242,114 -64.7673,62.7 -118.3429,114 -119.0569,114 -0.7141,0 -58.5657,-57.45 -128.5592,-127.6667 L 1280,1523.3333 1152.7391,1651 c -69.9935,70.2167 -127.8451,127.6667 -128.5592,127.6667 -0.714,0 -54.28959,-51.3 -119.05687,-114 z m -74.92248,-304.0995 c 38.02303,-27.5547 69.92118,-50.8645 70.88477,-51.7996 1.62348,-1.5754 26.84057,-160.1109 26.89328,-169.0734 0.0161,-2.7354 -12.74655,-20.6147 -51.39516,-72 -30.25467,-40.2251 -52.61705,-68.77537 -54.33334,-69.36798 -3.50752,-1.21109 -166.14727,-24.99289 -170.92221,-24.99289 -2.27867,0 -25.07031,15.73611 -71.6679,49.48187 -37.57966,27.2151 -69.34388,50.4651 -70.58715,51.6667 -1.75722,1.6983 -5.14578,21.074 -15.21988,87.0265 l -12.95938,84.8416 50.40353,67.1584 c 27.72193,36.937 51.40633,68.227 52.63198,69.5333 1.80493,1.9237 18.17807,4.7454 86.14969,14.8469 46.15667,6.8595 85.51147,12.5407 87.4551,12.6249 2.65914,0.1153 20.64622,-12.2479 72.66667,-49.9463 z m 1057.72805,37.4656 c 69.6535,-10.2385 86.3493,-13.0792 88.1497,-14.9984 1.2216,-1.3023 24.91,-32.5987 52.6409,-69.5477 l 50.4198,-67.1799 -12.9749,-84.8201 c -10.0859,-65.9348 -13.4782,-85.3065 -15.2361,-87.0048 -1.2437,-1.2016 -33.0083,-24.4516 -70.588,-51.6667 -46.0591,-33.35581 -69.4022,-49.48187 -71.6268,-49.48187 -4.7906,0 -167.5007,23.77795 -170.9633,24.98404 -1.7094,0.59542 -24.1999,29.31293 -54.3333,69.37683 -38.6486,51.3853 -51.4113,69.2646 -51.3952,72 0.053,8.976 25.2697,167.4968 26.8933,169.059 4.1705,4.0128 140.1338,101.9133 141.5342,101.9119 0.8531,-9e-4 40.219,-5.6854 87.4797,-12.6323 z M 238.85373,762.33333 c -3.0069,-9.62983 -15.27886,-69.01931 -14.436,-69.86218 0.4982,-0.49819 9.75251,-2.9325 20.56513,-5.40957 10.81262,-2.47706 20.13063,-4.97507 20.70669,-5.55113 0.57606,-0.57606 -1.32348,-11.80157 -4.22119,-24.94558 -4.04639,-18.35439 -4.90512,-24.27194 -3.7018,-25.50932 1.79295,-1.84369 -2.44405,-0.89289 301.56677,-67.67291 125.4,-27.54578 231.68476,-50.90133 236.18835,-51.90123 4.50359,-0.9999 8.86349,-1.40074 9.68866,-0.89076 0.82518,0.50999 3.83281,11.57811 6.68362,24.59582 2.85081,13.01771 5.57289,24.05816 6.04907,24.53434 0.47618,0.47617 9.0838,-0.85767 19.12804,-2.9641 10.04424,-2.10643 19.52745,-4.09214 21.07379,-4.4127 1.75609,-0.36403 3.12134,0.22453 3.63682,1.56786 1.13952,2.96952 15.55165,68.4739 15.55165,70.68356 0,0.98226 -0.98916,2.16551 -2.19815,2.62944 -2.36975,0.90936 -11.42885,2.91029 -384.14034,84.84711 -136.58617,30.02708 -248.88964,54.59469 -249.56326,54.59469 -0.67363,0 -1.83366,-1.95 -2.57785,-4.33334 z m 1998.47957,-13.1372 c -42.9,-9.48833 -183,-40.34484 -311.3333,-68.57001 -128.3333,-28.22518 -235.5833,-51.94092 -238.3333,-52.70165 -2.75,-0.76073 -5,-2.20726 -5,-3.21452 0,-2.29367 14.2581,-67.42727 15.427,-70.47344 1.0941,-2.85105 0.1412,-2.93016 21.2396,1.76349 21.7319,4.83457 23.0812,4.89088 23.9608,1 0.373,-1.65 2.7882,-12.56693 5.3672,-24.25985 2.5789,-11.69292 5.3503,-21.66865 6.1588,-22.1683 0.8084,-0.49964 5.1546,-0.0903 9.6582,0.90956 4.5036,0.9999 110.7884,24.35083 236.1884,51.89096 301.815,66.28408 299.7561,65.82206 301.6028,67.68091 1.249,1.2572 0.4285,6.88606 -3.7166,25.49678 -2.9257,13.13587 -4.847,24.34139 -4.2695,24.90116 0.5775,0.55978 9.9094,3.07171 20.7376,5.58208 10.8283,2.51037 20.0881,4.96466 20.5774,5.45399 0.8314,0.83135 -11.4778,60.32041 -14.4521,69.84604 -0.8471,2.71284 -2.187,4.29239 -3.583,4.22383 -1.2265,-0.0602 -37.33,-7.87269 -80.23,-17.36103 z"
         id="path5" />
      <path
         style="fill:#888887"
         d="m 726,2133.2108 c -57.2,-6.4937 -105.2,-12.1092 -106.66667,-12.4791 -1.46666,-0.3698 -26.96666,-13.8131 -56.66666,-29.8738 l -54,-29.2014 -17.06965,-15.1616 c -19.05928,-16.9288 -90.93035,-94.5512 -90.93035,-98.2069 0,-2.1595 49.39206,-2.288 879.33333,-2.288 832.7978,0 879.3333,0.1221 879.3333,2.3073 0,3.7583 -70.0173,79.3951 -90.1914,97.4301 l -18.1915,16.2626 -55.1419,29.5815 -55.1418,29.5814 -108.1413,12.0852 -108.1412,12.0852 -447.1921,-0.158 L 830,2145.0174 Z m 285.7097,-21.344 c 0.2071,-7.7733 -0.2281,-15.7233 -0.967,-17.6667 l -1.3434,-3.5334 h -60.53297 -60.533 l -0.83333,4.1666 c -1.11942,5.5971 -1.06564,29.8233 0.0687,30.9576 0.49612,0.4962 28.54612,0.7462 62.33333,0.5556 L 1011.3333,2126 Z m 220.0258,0.7999 c 0.2211,-7.3334 0.044,-15.2834 -0.3938,-17.6667 l -0.7959,-4.3333 h -60.5275 c -33.6235,0 -60.8514,0.5239 -61.2561,1.1788 -1.2303,1.9906 -2.5284,27.5815 -1.589,31.3246 l 0.8843,3.5232 61.6379,-0.3467 61.6379,-0.3466 z m 221.0946,10.4901 c 0.937,-3.7333 -0.3644,-29.3246 -1.5923,-31.3113 -0.4047,-0.6548 -27.5926,-1.1788 -61.161,-1.1788 h -60.4324 l -0.804,3 c -1.0975,4.0953 -1.0569,31.0057 0.048,32.1111 0.4889,0.4889 28.3774,0.8889 61.9746,0.8889 h 61.0857 z M 1673.0788,2114 c 0.2267,-6.6 0.04,-14.55 -0.415,-17.6667 l -0.8272,-5.6666 h -60.5063 c -46.9547,0 -60.742,0.3732 -61.5588,1.6666 -1.2814,2.0289 -2.3762,29.5009 -1.2887,32.3351 0.6822,1.7777 8.3125,1.9826 62.4805,1.6783 L 1672.6667,2126 Z m -881.15564,-5 c -0.0423,-6.7833 -0.50098,-14.7333 -1.01938,-17.6667 l -0.94254,-5.3333 -14.64728,-0.8816 c -8.05601,-0.4849 -35.25271,-2.2306 -60.4371,-3.8794 -39.21019,-2.5671 -45.96078,-2.7278 -46.97959,-1.1184 -1.91196,3.0202 -1.53605,26.5153 0.43606,27.2546 2.60903,0.978 110.24271,13.6482 117.33334,13.8119 L 792,2121.3333 Z m 1041.07664,5.6611 c 31.3501,-3.6698 57.7502,-6.951 58.6669,-7.2915 1.9687,-0.7315 2.3498,-24.226 0.4418,-27.2397 -0.9644,-1.5233 -3.989,-1.6866 -16.3129,-0.8811 -8.3209,0.5439 -35.5192,2.2854 -60.4407,3.8701 l -45.3118,2.8811 -0.9447,5.3333 c -0.5196,2.9334 -0.9793,10.8834 -1.0216,17.6667 l -0.077,12.3333 h 3.9998 c 2.1999,0 29.6499,-3.0025 61,-6.6722 z M 905.33333,1662.6456 c -69.54559,-67.5036 -117.53946,-113.1209 -118.8276,-112.9434 -1.18852,0.1638 -44.86162,49.3478 -97.05134,109.2978 -52.18972,59.95 -95.37271,109 -95.96219,109 -0.58948,0 -69.41638,-37.1599 -152.94866,-82.5774 l -151.87687,-82.5775 -10.89206,-33.0892 c -5.99063,-18.1991 -31.04406,-95.3148 -55.67428,-171.3682 l -44.78223,-138.279 -17.87099,-74.3877 c -21.39378,-89.0512 -52.1001,-224.17912 -51.15662,-225.12261 0.37064,-0.37063 73.50396,8.61394 162.51849,19.96572 l 161.8446,20.63959 5.33988,-3.14905 c 2.93693,-1.73199 45.5157,-28.70282 94.61949,-59.93519 70.96294,-45.13584 90.17679,-56.78613 93.65266,-56.78613 2.40518,0 53.42935,4.49859 113.38705,9.99686 l 109.01401,9.99685 166.66663,-31.88453 c 155.4034,-29.72979 166.8151,-31.73443 168.862,-29.66352 1.2074,1.22156 22.6957,34.62101 47.7517,74.22101 34.0192,53.76576 46.1966,72 48.0839,72 1.8877,0 14.0518,-18.22465 48.0566,-72 25.0411,-39.6 46.5155,-72.99746 47.7209,-74.21658 2.0418,-2.06506 13.585,-0.0369 168.8583,29.66829 l 166.6666,31.88487 109.0412,-10.00162 c 59.9727,-5.5009 110.9956,-10.00163 113.3842,-10.00163 3.4332,0 22.4882,11.53353 90.9588,55.05494 47.6387,30.28021 90.2158,57.26311 94.6158,59.96199 l 8,4.90704 161.857,-20.66061 c 89.0213,-11.36334 162.1548,-20.36271 162.5189,-19.99861 0.9296,0.92958 -29.8362,136.30382 -51.128,224.97142 l -17.8264,74.2361 -44.8155,138.4305 c -24.6486,76.1368 -49.7184,153.3207 -55.7108,171.5198 l -10.8952,33.0892 -151.8768,82.5775 C 2035.9242,1730.8401 1967.1018,1768 1966.5178,1768 c -0.5839,0 -43.5022,-48.75 -95.3738,-108.3333 -51.8717,-59.5834 -94.9493,-108.7826 -95.7281,-109.3317 -0.7787,-0.5491 -2.0857,-0.8491 -2.9043,-0.6667 -0.8186,0.1825 -53.83,51.0317 -117.8032,112.9984 -63.9731,61.9666 -117.3638,112.8466 -118.6459,113.0666 -1.5835,0.2717 -42.6626,-40.2493 -128.0735,-126.3333 -69.1582,-69.7033 -126.7347,-126.7333 -127.9477,-126.7333 -1.213,0 -58.7716,57 -127.9081,126.6666 -69.1365,69.6667 -126.6996,126.6412 -127.918,126.6101 -1.2183,-0.031 -54.7152,-51.0151 -118.88187,-113.2978 z m -75.17824,-300.7655 c 38.04803,-27.566 70.19032,-51.116 71.42731,-52.3334 2.96613,-2.9191 28.6946,-168.4923 26.90225,-173.127 -0.63322,-1.6374 -24.1844,-33.5545 -52.33595,-70.927 l -51.18463,-67.94992 -8.1487,-1.36354 c -4.48179,-0.74995 -43.83661,-6.57889 -87.45516,-12.9532 -72.81527,-10.64106 -79.58992,-11.42699 -82.76961,-9.6021 -5.51653,3.16606 -134.95481,97.11956 -138.08718,100.23136 -2.49605,2.4797 -4.35843,12.8289 -15.78589,87.7219 l -12.95597,84.9106 52.32626,69.5441 c 28.77944,38.2492 52.98309,69.7858 53.78589,70.0814 1.53589,0.5654 169.22963,25.5436 172.94805,25.7608 1.1853,0.069 33.2853,-22.4281 71.33333,-49.994 z m 1056.04571,37.4419 c 47.5562,-6.973 87.112,-12.9143 87.9018,-13.203 0.7898,-0.2887 24.9937,-31.8218 53.7866,-70.0736 l 52.3506,-69.5486 -12.9566,-84.9151 c -11.4256,-74.8802 -13.2911,-85.248 -15.7866,-87.7324 -3.1966,-3.1823 -132.226,-96.86151 -137.8902,-100.1123 -3.441,-1.97488 -8.4075,-1.40686 -82.9666,9.48904 -43.6186,6.37431 -82.984,12.2051 -87.4787,12.9573 l -8.1723,1.36764 -51.161,67.95342 c -28.1386,37.3744 -51.6792,69.2897 -52.3124,70.9229 -1.794,4.6269 23.938,170.2056 26.9022,173.109 2.1219,2.0783 140.2339,102.4637 140.9715,102.4637 0.1902,0 39.2555,-5.7051 86.8117,-12.678 z M 238.85373,762.33333 c -3.0069,-9.62983 -15.27886,-69.01931 -14.436,-69.86218 0.4982,-0.49819 9.75251,-2.9325 20.56513,-5.40957 10.81262,-2.47706 20.13063,-4.97507 20.70669,-5.55113 0.57606,-0.57606 -1.32348,-11.80157 -4.22119,-24.94558 -4.04639,-18.35439 -4.90512,-24.27194 -3.7018,-25.50932 1.79295,-1.84369 -2.44405,-0.89289 301.56677,-67.67291 125.4,-27.54578 231.68476,-50.90133 236.18835,-51.90123 4.50359,-0.9999 8.86349,-1.40074 9.68866,-0.89076 0.82518,0.50999 3.83281,11.57811 6.68362,24.59582 2.85081,13.01771 5.57289,24.05816 6.04907,24.53434 0.47618,0.47617 9.0838,-0.85767 19.12804,-2.9641 10.04424,-2.10643 19.52745,-4.09214 21.07379,-4.4127 1.75609,-0.36403 3.12134,0.22453 3.63682,1.56786 1.13952,2.96952 15.55165,68.4739 15.55165,70.68356 0,0.98226 -0.98916,2.16551 -2.19815,2.62944 -2.36975,0.90936 -11.42885,2.91029 -384.14034,84.84711 -136.58617,30.02708 -248.88964,54.59469 -249.56326,54.59469 -0.67363,0 -1.83366,-1.95 -2.57785,-4.33334 z m 1998.47957,-13.1372 c -42.9,-9.48833 -183,-40.34484 -311.3333,-68.57001 -128.3333,-28.22518 -235.5833,-51.94092 -238.3333,-52.70165 -2.75,-0.76073 -5,-2.20726 -5,-3.21452 0,-2.29367 14.2581,-67.42727 15.427,-70.47344 1.0941,-2.85105 0.1412,-2.93016 21.2396,1.76349 21.7319,4.83457 23.0812,4.89088 23.9608,1 0.373,-1.65 2.7882,-12.56693 5.3672,-24.25985 2.5789,-11.69292 5.3503,-21.66865 6.1588,-22.1683 0.8084,-0.49964 5.1546,-0.0903 9.6582,0.90956 4.5036,0.9999 110.7884,24.35083 236.1884,51.89096 301.815,66.28408 299.7561,65.82206 301.6028,67.68091 1.249,1.2572 0.4285,6.88606 -3.7166,25.49678 -2.9257,13.13587 -4.847,24.34139 -4.2695,24.90116 0.5775,0.55978 9.9094,3.07171 20.7376,5.58208 10.8283,2.51037 20.0881,4.96466 20.5774,5.45399 0.8314,0.83135 -11.4778,60.32041 -14.4521,69.84604 -0.8471,2.71284 -2.187,4.29239 -3.583,4.22383 -1.2265,-0.0602 -37.33,-7.87269 -80.23,-17.36103 z"
         id="path4" />
      <path
         style="fill:#c04b46"
         d="m 727.2151,2131.4465 -108.11824,-12.2744 -54.35961,-29.2527 -54.35961,-29.2527 -18.45155,-16.4195 c -17.48673,-15.5609 -89.25942,-91.8692 -89.25942,-94.9001 0,-0.9059 287.34663,-1.3471 877.33333,-1.3471 575.3335,0 877.3333,0.4523 877.3333,1.3139 0,3.0446 -71.7952,79.391 -89.2383,94.8953 l -18.5155,16.4575 -54.3229,29.2458 -54.3228,29.2457 -110.1336,12.3983 -110.1335,12.3982 L 1278,2143.8378 835.33333,2143.721 Z m 283.8796,-5.7798 c 0.3219,-0.55 0.8073,-9.1 1.0787,-19 l 0.4933,-18 H 949.33333 886 l 0.49161,18 c 0.27039,9.9 0.7558,18.45 1.07869,19 0.32289,0.55 28.11626,1 61.76303,1 33.64678,0 61.43937,-0.45 61.76137,-1 z m 221.191,-14.9144 c 0.5239,-8.3863 1.2327,-15.9779 1.5751,-16.8704 0.3425,-0.8925 -0.086,-2.5883 -0.9524,-3.7686 -1.4153,-1.9282 -7.9299,-2.1104 -64.2417,-1.7962 l -62.6667,0.3496 0.4358,16.6666 c 0.2396,9.1667 0.732,17.7227 1.094,19.0133 0.618,2.203 4.4265,2.3254 62.2309,2 L 1231.3333,2126 Z m 220.191,13.581 c 0.3611,-1.2833 0.8515,-9.8333 1.0899,-19 l 0.4334,-16.6666 -62.6667,-0.3496 c -53.8011,-0.3002 -62.8697,-0.073 -64.1021,1.6053 -0.9179,1.25 -1.0732,4.5013 -0.4307,9.0163 0.5527,3.8837 1.0486,11.3113 1.1022,16.5057 0.053,5.1945 0.4973,9.8445 0.9862,10.3334 0.4889,0.4889 28.3484,0.8889 61.9101,0.8889 56.9766,0 61.0648,-0.1547 61.6777,-2.3334 z m 219.953,1.3334 c 0.3229,-0.55 0.8083,-9.1 1.0787,-19 l 0.4916,-18 h -63.3333 -63.3334 l 0.4933,18 c 0.2714,9.9 0.7568,18.45 1.0787,19 0.322,0.55 28.1146,1 61.7614,1 33.6467,0 61.4401,-0.45 61.763,-1 z M 792,2110.8623 c 0,-5.7591 0.38212,-14.1271 0.84917,-18.5955 0.81339,-7.7821 0.71509,-8.1548 -2.33334,-8.8473 -1.75037,-0.3976 -30.1825,-2.4686 -63.1825,-4.6024 -45.21804,-2.9237 -60.39193,-3.5022 -61.59084,-2.3483 -2.05584,1.9787 0.65197,30.1771 2.98374,31.0719 2.47965,0.9515 109.97364,13.5034 116.94044,13.6549 L 792,2121.3333 Z m 1047.9594,3.0725 c 28.2446,-3.3264 51.7252,-6.4725 52.1791,-6.9914 1.6138,-1.8447 3.5991,-27.5531 2.3151,-29.9805 -1.0221,-1.9324 -2.4117,-2.2388 -7.5204,-1.6583 -3.4466,0.3917 -30.5665,2.2204 -60.2665,4.0637 -29.7,1.8434 -55.4322,3.6716 -57.1825,4.0628 -3.0493,0.6815 -3.147,1.0515 -2.3334,8.8357 0.4671,4.4684 0.8492,12.9244 0.8492,18.7911 v 10.6667 l 10.3028,-0.8709 c 5.6666,-0.479 33.412,-3.5925 61.6566,-6.9189 z M 905.33333,1662.6456 c -69.54559,-67.5036 -117.53946,-113.1209 -118.8276,-112.9434 -1.18852,0.1638 -44.86162,49.3478 -97.05134,109.2978 -52.18972,59.95 -95.37271,109 -95.96219,109 -0.58948,0 -69.41638,-37.1599 -152.94866,-82.5774 l -151.87687,-82.5775 -10.89206,-33.0892 c -5.99063,-18.1991 -31.04406,-95.3148 -55.67428,-171.3682 l -44.78223,-138.279 -17.87099,-74.3877 c -21.39378,-89.0512 -52.1001,-224.17912 -51.15662,-225.12261 0.37064,-0.37063 73.50396,8.61394 162.51849,19.96572 l 161.8446,20.63959 5.33988,-3.14905 c 2.93693,-1.73199 45.5157,-28.70282 94.61949,-59.93519 70.96294,-45.13584 90.17679,-56.78613 93.65266,-56.78613 2.40518,0 53.42935,4.49859 113.38705,9.99686 l 109.01401,9.99685 166.66663,-31.88453 c 155.4034,-29.72979 166.8151,-31.73443 168.862,-29.66352 1.2074,1.22156 22.6957,34.62101 47.7517,74.22101 34.0192,53.76576 46.1966,72 48.0839,72 1.8877,0 14.0518,-18.22465 48.0566,-72 25.0411,-39.6 46.5155,-72.99746 47.7209,-74.21658 2.0418,-2.06506 13.585,-0.0369 168.8583,29.66829 l 166.6666,31.88487 109.0412,-10.00162 c 59.9727,-5.5009 110.9956,-10.00163 113.3842,-10.00163 3.4332,0 22.4882,11.53353 90.9588,55.05494 47.6387,30.28021 90.2158,57.26311 94.6158,59.96199 l 8,4.90704 161.857,-20.66061 c 89.0213,-11.36334 162.1548,-20.36271 162.5189,-19.99861 0.9296,0.92958 -29.8362,136.30382 -51.128,224.97142 l -17.8264,74.2361 -44.8155,138.4305 c -24.6486,76.1368 -49.7184,153.3207 -55.7108,171.5198 l -10.8952,33.0892 -151.8768,82.5775 C 2035.9242,1730.8401 1967.1018,1768 1966.5178,1768 c -0.5839,0 -43.5022,-48.75 -95.3738,-108.3333 -51.8717,-59.5834 -94.9493,-108.7826 -95.7281,-109.3317 -0.7787,-0.5491 -2.0857,-0.8491 -2.9043,-0.6667 -0.8186,0.1825 -53.83,51.0317 -117.8032,112.9984 -63.9731,61.9666 -117.3638,112.8466 -118.6459,113.0666 -1.5835,0.2717 -42.6626,-40.2493 -128.0735,-126.3333 -69.1582,-69.7033 -126.7347,-126.7333 -127.9477,-126.7333 -1.213,0 -58.7716,57 -127.9081,126.6666 -69.1365,69.6667 -126.6996,126.6412 -127.918,126.6101 -1.2183,-0.031 -54.7152,-51.0151 -118.88187,-113.2978 z m -38.70922,-254.6994 c 49.47659,-35.9243 90.42419,-66.1509 90.99467,-67.1703 1.63016,-2.9129 34.34586,-218.4136 33.40074,-220.0131 -2.65316,-4.49 -133.939,-178.09613 -134.6813,-178.09613 -0.49336,0 -50.12129,-7.23723 -110.28429,-16.08272 C 685.89094,917.73845 635.46667,910.73691 634,911.02497 c -1.46667,0.28806 -43.02592,29.80769 -92.35389,65.59918 -66.83049,48.49095 -89.89656,65.90945 -90.50864,68.34825 -0.45178,1.8 -8.15757,51.0676 -17.12399,109.4835 -12.90023,84.0446 -15.99414,106.8018 -14.82469,109.0426 4.07514,7.8084 132.47285,176.6096 134.81121,177.2328 3.81401,1.0165 215.32511,32.2761 219.33333,32.4157 2.38627,0.083 28.89196,-18.4417 93.29078,-65.2008 z m 1028.62899,49.3516 c 60.1774,-8.8195 110.3136,-16.3348 111.4136,-16.7006 1.8833,-0.6263 130.9635,-171.0215 134.1564,-177.0962 1.1839,-2.2524 -1.8814,-24.8714 -14.9295,-110.1677 -9.0305,-59.0333 -17.2009,-108.6702 -18.1564,-110.3043 C 2105.662,1039.48 1929.8451,911.77356 1926,911.02226 c -1.4667,-0.28657 -51.8909,6.71619 -112.0539,15.56169 -60.163,8.84549 -109.7873,16.08272 -110.2761,16.08272 -0.7343,0 -131.9822,173.55433 -134.6905,178.10663 -0.9535,1.6028 31.7591,217.0674 33.4016,220.0023 1.2185,2.1774 180.359,132.4709 182.2053,132.5226 0.6892,0.019 50.4892,-7.1808 110.6667,-16.0004 z M 240.70838,762.47476 c -0.3574,-0.99445 -3.88017,-16.50809 -7.82839,-34.47476 -5.27895,-24.02226 -6.78624,-33.06626 -5.69595,-34.17669 0.81544,-0.83051 8.98204,-3.15216 18.14799,-5.15923 20.38357,-4.4634 22.66356,-5.2974 22.68442,-8.29775 0.009,-1.30148 -2.16583,-12.46146 -4.83304,-24.79996 -2.73859,-12.6687 -4.34178,-22.90954 -3.68311,-23.52696 1.50815,-1.41372 8.69009,-3.02199 271.16637,-60.72316 269.15812,-59.17007 272.06028,-59.7893 273.49492,-58.35466 0.62999,0.62999 3.44755,11.48755 6.26125,24.12792 2.81371,12.64037 5.71603,23.58269 6.44961,24.31627 0.88948,0.88949 7.64367,-0.0405 20.27617,-2.79167 10.41831,-2.269 19.945,-3.93236 21.17042,-3.69637 1.7562,0.33821 3.7066,7.06325 9.2098,31.75567 6.69717,30.04964 8.10346,38.65992 6.31418,38.65992 -0.45301,0 -22.20301,4.77078 -48.33333,10.60174 C 762.6749,649.95659 285.36409,754.82142 264,759.29834 c -9.16667,1.9209 -18.01108,3.82824 -19.65424,4.23853 -1.86334,0.46527 -3.2321,0.0656 -3.63738,-1.06211 z m 2056.62492,-2.71635 c -9.9,-2.17573 -132.6,-29.13875 -272.6666,-59.91783 -140.0667,-30.77907 -273.337,-60.13464 -296.1562,-65.2346 -22.8192,-5.09996 -41.8692,-9.27265 -42.3333,-9.27265 -1.81,0 -0.4253,-8.51208 6.29,-38.66666 6.0725,-27.268 7.3166,-31.38081 9.5886,-31.6992 1.436,-0.20122 10.646,1.39728 20.4667,3.55222 9.8207,2.15495 18.6479,3.61416 19.6159,3.24269 2.2148,-0.84988 2.2045,-0.81524 7.8321,-26.3565 2.5764,-11.69343 5.2116,-21.78803 5.8561,-22.43243 1.4612,-1.4612 -6.2667,-3.10926 268.1734,57.19134 267.2949,58.73065 274.9805,60.4505 276.4997,61.87462 0.6587,0.61742 -0.9445,10.85826 -3.6831,23.52696 -2.6672,12.3385 -4.8421,23.49848 -4.833,24.79996 0.021,2.97085 2.139,3.74949 22.6831,8.33742 9.1666,2.04711 17.3335,4.37622 18.1485,5.1758 2.1975,2.15582 -12.7633,69.3469 -15.5039,69.63024 -1.0879,0.11247 -10.078,-1.57565 -19.978,-3.75138 z"
         id="path3" />
      <path
         style="fill:#1a1a1a"
         d="m 727.2151,2131.4465 -108.11824,-12.2744 -54.35961,-29.2527 -54.35961,-29.2527 -18.45155,-16.4195 c -17.48673,-15.5609 -89.25942,-91.8692 -89.25942,-94.9001 0,-0.9059 287.34663,-1.3471 877.33333,-1.3471 575.3335,0 877.3333,0.4523 877.3333,1.3139 0,3.0446 -71.7952,79.391 -89.2383,94.8953 l -18.5155,16.4575 -54.3229,29.2458 -54.3228,29.2457 -110.1336,12.3983 -110.1335,12.3982 L 1278,2143.8378 835.33333,2143.721 Z m 284.6614,-5.2977 c 1.0347,-1.2467 1.4145,-7.6678 1.1632,-19.6666 l -0.373,-17.8155 H 949.33333 886 l -0.37307,17.8155 c -0.25126,11.9988 0.12853,18.4199 1.16326,19.6666 1.26976,1.53 12.12148,1.8512 62.54314,1.8512 50.42167,0 61.27337,-0.3212 62.54317,-1.8512 z m 219.7282,0.7904 c 1.9457,-1.2367 2.6691,-35.8654 0.7886,-37.7459 -0.7131,-0.7131 -27.2249,-1.0759 -63.8066,-0.8733 l -62.5867,0.3467 0.1212,18.4568 c 0.094,14.3252 0.5418,18.7232 2,19.6463 2.2843,1.4461 121.2183,1.6092 123.4835,0.1694 z m 220.0669,-0.041 c 1.1818,-0.7503 1.7679,-6.5074 2,-19.6462 l 0.3284,-18.5849 -62.5867,-0.3467 c -36.5817,-0.2026 -63.0935,0.1602 -63.8066,0.8733 -1.8805,1.8805 -1.1571,36.5092 0.7886,37.7459 2.1378,1.3588 121.1339,1.3189 123.2763,-0.041 z m 221.5382,-0.749 c 1.0347,-1.2467 1.4145,-7.6678 1.1633,-19.6666 L 1674,2088.6667 h -63.3333 -63.3334 l -0.373,17.8155 c -0.2513,11.9988 0.1285,18.4199 1.1632,19.6666 1.2698,1.53 12.1215,1.8512 62.5432,1.8512 50.4216,0 61.2733,-0.3212 62.5431,-1.8512 z m -880.1734,-23.1143 c 0.36616,-18.7823 0.34042,-18.972 -2.66667,-19.6516 -1.67002,-0.3775 -30.0364,-2.432 -63.0364,-4.5658 -45.10046,-2.9161 -60.36016,-3.4992 -61.45036,-2.3483 -0.94539,0.9981 -1.24206,6.7578 -0.8521,16.5429 0.55756,13.9904 0.79231,15.0584 3.45036,15.6972 6.56813,1.5787 112.68701,13.7082 118.18544,13.5087 l 6,-0.2176 z m 1039.2953,12.9137 c 31.7176,-3.6952 58.7183,-7.0357 60.0016,-7.4232 1.9871,-0.6001 2.3361,-2.4229 2.3516,-12.2815 0.01,-6.3673 0.3387,-12.7768 0.7305,-14.2435 0.3918,-1.4667 -0.066,-3.6605 -1.0182,-4.8751 -1.6068,-2.0506 -6.0202,-1.9297 -61.7305,1.6906 -33,2.1444 -61.35,4.1997 -63,4.5672 -2.9216,0.6506 -3,1.118 -3,17.867 0,9.4594 0.3642,18.1479 0.8093,19.3079 0.4451,1.16 2.2444,2.1091 3.9983,2.1091 1.754,0 29.1398,-3.0234 60.8574,-6.7185 z M 240.70838,762.47476 c -0.3574,-0.99445 -3.88017,-16.50809 -7.82839,-34.47476 -5.27895,-24.02226 -6.78624,-33.06626 -5.69595,-34.17669 0.81544,-0.83051 8.98204,-3.15216 18.14799,-5.15923 20.38357,-4.4634 22.66356,-5.2974 22.68442,-8.29775 0.009,-1.30148 -2.16583,-12.46146 -4.83304,-24.79996 -2.73859,-12.6687 -4.34178,-22.90954 -3.68311,-23.52696 1.50815,-1.41372 8.69009,-3.02199 271.16637,-60.72316 269.15812,-59.17007 272.06028,-59.7893 273.49492,-58.35466 0.62999,0.62999 3.44755,11.48755 6.26125,24.12792 2.81371,12.64037 5.71603,23.58269 6.44961,24.31627 0.88948,0.88949 7.64367,-0.0405 20.27617,-2.79167 10.41831,-2.269 19.945,-3.93236 21.17042,-3.69637 1.7562,0.33821 3.7066,7.06325 9.2098,31.75567 6.69717,30.04964 8.10346,38.65992 6.31418,38.65992 -0.45301,0 -22.20301,4.77078 -48.33333,10.60174 C 762.6749,649.95659 285.36409,754.82142 264,759.29834 c -9.16667,1.9209 -18.01108,3.82824 -19.65424,4.23853 -1.86334,0.46527 -3.2321,0.0656 -3.63738,-1.06211 z m 2056.62492,-2.71635 c -9.9,-2.17573 -132.6,-29.13875 -272.6666,-59.91783 -140.0667,-30.77907 -273.337,-60.13464 -296.1562,-65.2346 -22.8192,-5.09996 -41.8692,-9.27265 -42.3333,-9.27265 -1.81,0 -0.4253,-8.51208 6.29,-38.66666 6.0725,-27.268 7.3166,-31.38081 9.5886,-31.6992 1.436,-0.20122 10.646,1.39728 20.4667,3.55222 9.8207,2.15495 18.6479,3.61416 19.6159,3.24269 2.2148,-0.84988 2.2045,-0.81524 7.8321,-26.3565 2.5764,-11.69343 5.2116,-21.78803 5.8561,-22.43243 1.4612,-1.4612 -6.2667,-3.10926 268.1734,57.19134 267.2949,58.73065 274.9805,60.4505 276.4997,61.87462 0.6587,0.61742 -0.9445,10.85826 -3.6831,23.52696 -2.6672,12.3385 -4.8421,23.49848 -4.833,24.79996 0.021,2.97085 2.139,3.74949 22.6831,8.33742 9.1666,2.04711 17.3335,4.37622 18.1485,5.1758 2.1975,2.15582 -12.7633,69.3469 -15.5039,69.63024 -1.0879,0.11247 -10.078,-1.57565 -19.978,-3.75138 z"
         id="path2" />
    </g>
  </g>
</svg>
